<mxfile host="app.diagrams.net" modified="2023-06-22T15:09:58.878Z" agent="Mozilla/5.0 (Windows NT 10.0; Win64; x64) AppleWebKit/537.36 (KHTML, like Gecko) Chrome/114.0.0.0 Safari/537.36" version="21.3.8" etag="aCx83dIr08xA6Gwgq-y_" type="github">
  <diagram name="Page-1" id="P7LIl5TAlhtcHqa2LYa1">
    <mxGraphModel>
      <root>
        <mxCell id="0" />
        <mxCell id="1" parent="0" />
      </root>
    </mxGraphModel>
  </diagram>
</mxfile>
